#!OML:ASF I:\Actors\actors\Patient Classification 1\Patient 1\Session 1\Subject1.ASF
:FULLY-SPECIFIED
:DEGREES
1093
root 0.607327 17.5597 9.24237 6.82471 -1.9974 -8.95905
lowerback -2.15978 0.487673 6.11593
upperback -10.4379 1.07932 2.77264
thorax -9.83975 0.148012 -0.515302
lowerneck -7.38551 -5.47284 -4.29843
upperneck 11.6821 -8.38227 11.0802
head 5.38473 -3.61742 3.56096
rclavicle -5.93869e-015 4.07509e-015
rhumerus 32.5597 20.3797 -7.28417
rradius 106.718
rwrist 6.13928
rhand 3.57877 -49.679
rfingers 7.12502
rthumb 29.0135 282.56
lclavicle -5.93869e-015 4.07509e-015
lhumerus 38.7605 -21.3933 9.1025
lradius 105.156
lwrist 22.7304
lhand -34.9958 -2.53727
lfingers 7.12502
lthumb -8.14069 27.2859
rfemur -5.39789 21.3504 26.6174
rtibia 9.18371
rfoot -13.0771 -20.6127
rtoes 0.26136
lfemur 3.16816 -30.902 -10.2787
ltibia -0.651932
lfoot -12.7014 39.2299
ltoes -3.61589
1094
root 0.598709 17.5546 9.29162 6.55912 -2.11669 -8.99315
lowerback -2.61411 0.584309 6.15778
upperback -10.662 1.1792 2.72127
thorax -9.81861 0.188394 -0.592992
lowerneck -7.1524 -5.58113 -4.61496
upperneck 11.8605 -8.54743 11.2866
head 5.43506 -3.70209 3.66969
rclavicle -2.41026e-015 3.8763e-015
rhumerus 31.8224 18.033 -7.07042
rradius 107.48
rwrist 5.6978
rhand 4.17003 -49.7065
rfingers 7.12502
rthumb 29.578 282.631
lclavicle -2.41026e-015 3.8763e-015
lhumerus 38.6696 -19.1483 8.86523
lradius 106.071
lwrist 23.6309
lhand -34.4772 -2.21045
lfingers 7.12502
lthumb -7.64023 27.6315
rfemur -4.84768 21.3082 26.8688
rtibia 9.1154
rfoot -13.2664 -20.4991
rtoes 0.221519
lfemur 3.85209 -30.8523 -10.5639
ltibia -0.763128
lfoot -12.9059 39.2863
ltoes -3.65628
1095
root 0.589156 17.5511 9.34087 6.34534 -2.23718 -8.99267
lowerback -3.08248 0.522704 6.04645
upperback -10.8899 1.06119 2.69109
thorax -9.80625 0.135352 -0.55071
lowerneck -7.0325 -5.55597 -4.38252
upperneck 12.1264 -8.55349 11.1425
head 5.4808 -3.70044 3.58857
rclavicle 1.19271e-015 -1.00386e-014
rhumerus 31.5426 15.6371 -7.20716
rradius 108.084
rwrist 5.05433
rhand 4.90786 -49.3542
rfingers 7.12502
rthumb 30.2821 283.11
lclavicle 1.19271e-015 -1.00386e-014
lhumerus 38.2795 -16.731 8.44218
lradius 106.809
lwrist 24.5268
lhand -33.8109 -2.29365
lfingers 7.12502
lthumb -6.997 27.5707
rfemur -4.36409 21.3243 27.054
rtibia 9.04985
rfoot -13.4846 -20.4305
rtoes 0.231325
lfemur 4.44622 -30.8119 -10.8395
ltibia -0.851177
lfoot -13.0229 39.3314
ltoes -3.86541
1096
root 0.581404 17.5478 9.39051 6.19637 -2.34036 -9.00207
lowerback -3.51618 0.496029 6.01729
upperback -11.1506 0.994535 2.61282
thorax -9.84942 0.0960667 -0.608312
lowerneck -6.9609 -5.522 -4.13878
upperneck 12.4669 -8.57409 11.1249
head 5.56466 -3.69294 3.54303
rclavicle -3.47376e-014 6.38099e-014
rhumerus 31.2156 13.1464 -7.35241
rradius 108.544
rwrist 4.13442
rhand 5.80611 -48.8729
rfingers 7.12502
rthumb 31.1386 283.752
lclavicle -3.47376e-014 6.38099e-014
lhumerus 38.0837 -14.3221 8.11631
lradius 107.275
lwrist 25.2723
lhand -33.2777 -2.58257
lfingers 7.12502
lthumb -6.48234 27.2982
rfemur -3.97714 21.2646 27.2101
rtibia 9.01931
rfoot -13.6705 -20.3145
rtoes 0.10622
lfemur 4.92596 -30.7278 -11.0568
ltibia -0.894895
lfoot -13.2691 39.3429
ltoes -3.97418
1097
root 0.575489 17.5447 9.44007 6.05335 -2.39845 -8.93947
lowerback -3.32624 0.588416 6.16097
upperback -11.8468 1.15834 2.34791
thorax -10.754 0.116886 -0.970129
lowerneck -6.5617 -5.57472 -4.06525
upperneck 13.183 -8.77062 11.2982
head 5.73812 -3.76594 3.57967
rclavicle -2.08724e-015 2.26615e-014
rhumerus 30.3764 11.2324 -7.3658
rradius 108.859
rwrist 3.40643
rhand 6.58702 -48.4731
rfingers 7.12502
rthumb 31.8825 284.297
lclavicle -2.08724e-015 2.26615e-014
lhumerus 38.363 -12.7027 7.98673
lradius 107.35
lwrist 25.7163
lhand -32.9159 -2.67064
lfingers 7.12502
lthumb -6.13301 27.2206
rfemur -3.59808 21.1461 27.2702
rtibia 8.97304
rfoot -13.8299 -20.195
rtoes -0.0620034
lfemur 5.40673 -30.7579 -11.385
ltibia -0.947894
lfoot -13.6534 39.4383
ltoes -3.80458
1098
root 0.569604 17.5426 9.48922 5.82073 -2.47589 -8.78721
lowerback -3.66325 0.60142 5.96637
upperback -12.041 1.14521 2.27266
thorax -10.7763 0.121331 -0.937615
lowerneck -6.51089 -5.6088 -4.04372
upperneck 13.5611 -8.87837 11.3771
head 5.85857 -3.80195 3.59353
rclavicle 1.87852e-014 -4.51241e-014
rhumerus 30.2132 8.69809 -7.21424
rradius 108.841
rwrist 3.30316
rhand 7.06166 -48.0378
rfingers 7.12502
rthumb 32.3344 284.824
lclavicle 1.87852e-014 -4.51241e-014
lhumerus 38.6301 -10.3715 8.0238
lradius 107.024
lwrist 26.295
lhand -32.3206 -2.40418
lfingers 7.12502
lthumb -5.55831 27.5029
rfemur -3.075 21.0908 27.2693
rtibia 8.84491
rfoot -13.9659 -20.141
rtoes -0.237313
lfemur 6.04096 -30.9598 -11.9404
ltibia -1.00501
lfoot -14.0764 39.6998
ltoes -3.43221
1099
root 0.562842 17.541 9.5372 5.53085 -2.56856 -8.71602
lowerback -4.52757 0.540966 5.60314
upperback -11.7347 0.979021 2.4328
thorax -9.91652 0.106617 -0.556935
lowerneck -6.77565 -5.62223 -4.13159
upperneck 13.4956 -8.8745 11.3697
head 5.8876 -3.79764 3.59861
rclavicle 1.54555e-014 -1.23246e-014
rhumerus 30.7195 5.56654 -6.92598
rradius 108.52
rwrist 3.68675
rhand 7.53981 -47.5395
rfingers 7.12502
rthumb 32.7894 285.416
lclavicle 1.54555e-014 -1.23246e-014
lhumerus 38.729 -7.22779 8.00975
lradius 106.584
lwrist 27.3286
lhand -32.0425 -1.6991
lfingers 7.12502
lthumb -5.2898 28.2149
rfemur -2.45751 21.0586 27.3962
rtibia 8.68346
rfoot -14.0732 -20.0898
rtoes -0.407102
lfemur 6.75744 -31.0954 -12.4282
ltibia -1.08287
lfoot -14.393 39.8996
ltoes -3.29055
1100
root 0.555887 17.5383 9.58417 5.29062 -2.63735 -8.77772
lowerback -4.05731 0.645248 5.88667
upperback -12.3925 1.18076 2.19814
thorax -10.9478 0.133127 -0.967698
lowerneck -6.34726 -5.60943 -3.99329
upperneck 13.6653 -8.91995 11.484
head 5.86871 -3.81562 3.62024
rclavicle -2.38542e-015 4.96962e-015
rhumerus 30.2277 3.82441 -6.66077
rradius 108.243
rwrist 3.81183
rhand 8.1912 -46.8458
rfingers 7.12502
rthumb 33.4088 286.241
lclavicle -2.38542e-015 4.96962e-015
lhumerus 39.1824 -5.57175 7.53553
lradius 106.243
lwrist 28.6151
lhand -31.815 -1.26621
lfingers 7.12502
lthumb -5.07012 28.6531
rfemur -1.90725 21.0279 27.6602
rtibia 8.55474
rfoot -14.1949 -20.0164
rtoes -0.402438
lfemur 7.45851 -31.2566 -12.7356
ltibia -1.22943
lfoot -14.6942 40.1077
ltoes -3.20524
1101
root 0.549401 17.5342 9.63034 5.10146 -2.7097 -8.8995
lowerback -4.21362 0.664345 5.98802
upperback -12.5666 1.20521 2.20696
thorax -11.0586 0.130625 -1.01165
lowerneck -6.34711 -5.71669 -3.99398
upperneck 13.9485 -9.10249 11.4751
head 5.97196 -3.89595 3.60195
rclavicle -1.18277e-014 1.53064e-014
rhumerus 30.3063 1.43862 -6.14635
rradius 107.737
rwrist 3.47676
rhand 8.79735 -45.8715
rfingers 7.12502
rthumb 33.9848 287.341
lclavicle -1.18277e-014 1.53064e-014
lhumerus 39.3486 -3.12169 6.95177
lradius 105.778
lwrist 29.7199
lhand -31.4326 -1.47794
lfingers 7.12502
lthumb -4.70085 28.4499
rfemur -1.43382 21.0255 27.9699
rtibia 8.43548
rfoot -14.2955 -19.9667
rtoes -0.302852
lfemur 8.13567 -31.5122 -12.9816
ltibia -1.40238
lfoot -14.9645 40.4449
ltoes -3.00172
1102
root 0.541517 17.5305 9.67553 4.8869 -2.77262 -8.99276
lowerback -4.9503 0.583185 5.80717
upperback -12.2533 1.02837 2.4109
thorax -10.2661 0.0965502 -0.684391
lowerneck -6.66708 -5.49854 -4.03062
upperneck 13.2789 -8.76135 11.7812
head 5.80673 -3.72191 3.72551
rclavicle -1.75924e-014 -8.94531e-015
rhumerus 30.8936 -1.44851 -5.57181
rradius 107.054
rwrist 3.07809
rhand 9.26031 -44.9515
rfingers 7.12502
rthumb 34.4244 288.36
lclavicle -1.75924e-014 -8.94531e-015
lhumerus 39.2645 0.0166599 6.29989
lradius 105.176
lwrist 30.3969
lhand -31.0717 -1.6938
lfingers 7.12502
lthumb -4.35235 28.2415
rfemur -0.910948 21.0287 28.2618
rtibia 8.26667
rfoot -14.3847 -19.9254
rtoes -0.0726881
lfemur 8.74754 -31.544 -13.1883
ltibia -1.52765
lfoot -14.9447 40.5648
ltoes -3.12142
1103
root 0.532999 17.5285 9.72064 4.68256 -2.78651 -9.05056
lowerback -5.12062 0.528579 5.71891
upperback -12.3373 0.948773 2.47653
thorax -10.2681 0.0686235 -0.559985
lowerneck -6.71019 -5.52337 -4.2586
upperneck 13.3607 -8.81277 11.9958
head 5.86356 -3.74 3.82603
rclavicle -1.44119e-014 -6.75868e-015
rhumerus 31.2207 -3.62325 -4.93953
rradius 106.46
rwrist 2.64
rhand 9.60849 -44.6523
rfingers 7.12502
rthumb 34.7549 288.735
lclavicle -1.44119e-014 -6.75868e-015
lhumerus 39.4528 2.09394 5.67183
lradius 104.291
lwrist 30.1962
lhand -31.1469 -1.84445
lfingers 7.12502
lthumb -4.42502 28.0893
rfemur -0.373923 21.0094 28.5105
rtibia 8.07047
rfoot -14.5132 -19.8823
rtoes 0.101053
lfemur 9.25862 -31.4044 -13.336
ltibia -1.62736
lfoot -14.8521 40.4414
ltoes -3.40638
